<svg width="146" height="70" viewBox="0 0 146 70" fill="none" xmlns="http://www.w3.org/2000/svg">
<g clip-path="url(#clip0_2_2)">
<path d="M63.9532 31.9053L33.1617 1.08316C30.3056 3.9421 30.3056 8.57684 33.1617 11.4358L63.9532 42.2579C66.8093 39.3989 66.8093 34.7642 63.9532 31.9053ZM32.5876 15.9895C29.7535 18.8263 29.7535 23.4316 32.5876 26.2758L56.2535 49.9653C59.1096 47.1063 59.1096 42.4716 56.2535 39.6126L32.617 15.96L32.5876 15.9968V15.9895ZM31.9766 30.9768C29.1941 33.7621 29.1941 38.2863 31.9766 41.0716L48.5538 57.6653C51.4099 54.8063 51.4099 50.1716 48.5538 47.3126L32.1017 30.8442L31.9766 30.9695V30.9768ZM26.0509 18.5537C28.6935 15.9084 28.6935 11.62 26.0509 8.97474L25.8522 8.76842C25.7491 8.66526 25.5872 8.66526 25.4841 8.76842L1.98012 32.2958C-0.662512 34.9411 -0.662512 39.2295 1.98012 41.8747L2.17887 42.0811C2.17887 42.0811 2.20832 42.1032 2.22304 42.1105C2.2672 42.1621 2.31137 42.2137 2.3629 42.2653L26.7208 66.6474C30.5191 70.4421 36.2387 70.0074 39.588 66.6474C42.8416 63.4642 43.4378 57.6211 39.588 53.7674L23.8131 37.9768C23.3273 37.4905 23.3273 36.6947 23.8131 36.2011L25.5062 34.5063C28.3329 31.6768 28.3329 27.0863 25.5062 24.2568L25.462 24.2053L17.7181 31.9568L13.883 35.7958C13.1764 36.5032 13.1764 37.6526 13.883 38.3674L17.7181 42.2063L17.7697 42.2579L34.4867 58.9842C35.1566 59.6547 35.1566 60.7379 34.4867 61.4084L34.3837 61.5116C33.7138 62.1821 32.6244 62.1821 31.9471 61.5116L8.76705 38.3011C8.09719 37.6305 8.08983 36.5326 8.76705 35.8621C12.8893 31.7358 26.0583 18.5537 26.0583 18.5537" fill="#F5333F"/>
<path d="M72.7865 54.7105C72.9264 54.7105 72.9926 54.8284 73.1325 55.219C73.4785 56.2063 74.0379 57.6579 74.3912 58.8737C74.8256 57.5547 75.3556 56.0811 75.8414 54.6958C76.1874 54.6958 76.629 54.7695 76.7615 54.8211C76.894 54.8653 76.894 54.9905 76.813 55.2263C76.2021 56.8621 75.5396 58.4242 74.8992 59.9642C74.8256 60.1411 74.7667 60.2368 74.671 60.2811C74.5532 60.3474 74.141 60.3842 73.7214 60.3842C73.0883 58.6379 72.3375 56.6263 71.5867 54.9095C72.0136 54.7842 72.4921 54.7032 72.7865 54.7032" fill="white"/>
<path d="M79.89 58.0263C79.5219 56.9726 79.279 56.3463 79.1907 56.0737C79.0067 56.5968 78.7637 57.2895 78.4987 58.0263H79.89ZM78.2264 58.8516C78.0644 59.2789 77.8289 59.9347 77.7185 60.2C77.6743 60.2884 77.6007 60.3326 77.4535 60.3326C77.2253 60.3326 76.7689 60.2811 76.548 60.2147V60.1779C76.9897 59.0947 78.3294 55.8379 78.6828 54.9832L78.6239 54.8211C79.014 54.74 79.6176 54.7105 79.7133 54.7105C79.7869 54.7105 79.8605 54.7547 79.9194 54.88C80.339 55.8674 80.9574 57.5326 81.2444 58.2842C81.6125 59.2347 81.826 59.78 82.01 60.1926V60.2295C81.8039 60.2958 81.0972 60.3326 80.869 60.3326C80.7144 60.3326 80.6482 60.2884 80.5599 60.0379C80.3979 59.5958 80.2875 59.2642 80.1329 58.8516H78.2337H78.2264Z" fill="white"/>
<path d="M82.5694 55.9042C82.5694 55.3074 82.5621 54.9463 82.54 54.7768C82.7166 54.7474 83.438 54.7032 83.6368 54.7032C83.8061 54.7032 83.8355 54.7916 83.8355 55.1895V57.4368C84.4759 56.6558 85.455 55.4253 85.9997 54.6663C86.169 54.6663 86.4266 54.6737 86.699 54.7326C87.0523 54.7842 87.045 54.9242 86.8609 55.1821C86.5297 55.6463 85.6905 56.6337 85.1164 57.3337C85.5065 57.9747 86.6843 59.5663 87.2143 60.1705V60.2074C87.1333 60.2589 86.6622 60.34 86.2132 60.34C85.8819 60.34 85.7347 60.2589 85.4329 59.8832C85.0133 59.36 83.9533 57.8347 83.8355 57.5842V59.1611C83.8355 59.78 83.8503 60.0747 83.865 60.2516C83.7104 60.2958 83.0111 60.3253 82.7829 60.3253C82.643 60.3253 82.5694 60.3032 82.5694 60.1484V55.8968V55.9042Z" fill="white"/>
<path d="M87.6339 55.9042C87.6339 55.3074 87.6265 54.9463 87.6044 54.7768C87.7811 54.7474 88.5025 54.7032 88.7012 54.7032C88.8705 54.7032 88.9 54.7916 88.9 55.1895V59.1611C88.9 59.78 88.9147 60.0747 88.9294 60.2516C88.7748 60.2958 88.0755 60.3253 87.8473 60.3253C87.7001 60.3253 87.6339 60.3032 87.6339 60.1484V55.8968V55.9042Z" fill="white"/>
<path d="M90.0704 55.8084C90.0704 55.4621 90.063 55.2337 90.0409 54.8726C90.2102 54.8284 90.8286 54.7547 91.2702 54.74H93.4859C93.405 55.219 93.2577 55.4032 93.1252 55.5211C93.0001 55.5726 92.8161 55.5726 92.4112 55.5726H91.3365V57.1863H93.2872C93.1768 57.96 92.9707 58.019 92.6026 58.019H91.3365C91.3365 58.8516 91.3439 59.6105 91.3659 60.2663C91.2114 60.3105 90.6961 60.34 90.2839 60.34C90.1366 60.34 90.0704 60.3105 90.0704 60.1632V55.8158V55.8084Z" fill="white"/>
<path d="M99.6325 53.6495C99.6325 54.0179 99.419 54.2463 99.073 54.2463C98.8227 54.2463 98.5504 54.0695 98.5504 53.7011C98.5504 53.3621 98.7491 53.1116 99.1172 53.1116C99.4263 53.1116 99.6325 53.3547 99.6325 53.6495ZM97.7995 53.6495C97.7995 54.0179 97.5787 54.2463 97.2401 54.2463C96.9677 54.2463 96.7027 54.0695 96.7027 53.7011C96.7027 53.3621 96.9015 53.1116 97.2843 53.1116C97.5861 53.1116 97.7995 53.3621 97.7995 53.6495ZM97.0193 57.6874C97.0193 59.2421 97.645 59.5074 98.2338 59.5074C98.9037 59.5074 99.4264 59.1905 99.4264 57.6284V54.9684C99.4264 54.7916 99.5 54.7547 99.6325 54.7474C99.8975 54.7179 100.361 54.7105 100.538 54.7105C100.523 55.0642 100.508 55.5874 100.508 56.3242V57.5842C100.508 60.0232 99.2129 60.4137 98.094 60.4137C96.5187 60.4137 95.7532 59.5737 95.7532 57.7463V55.9263C95.7532 55.3295 95.7458 54.9684 95.7237 54.7842C95.9004 54.7621 96.6218 54.7105 96.8205 54.7105C96.9898 54.7105 97.0119 54.7989 97.0119 55.2337V57.6947L97.0193 57.6874Z" fill="white"/>
<path d="M101.458 54.8211V54.7768C101.649 54.7547 102.555 54.7032 102.731 54.7032C102.827 54.7032 102.901 54.7695 102.989 54.8653C103.261 55.2926 103.924 56.3316 104.432 57.201C104.807 57.8274 105.094 58.2989 105.308 58.7632C105.249 58.1884 105.256 57.9158 105.256 57.4663V54.9905C105.256 54.7842 105.323 54.7547 105.462 54.74C105.75 54.7105 106.073 54.7032 106.287 54.7032C106.272 55.0863 106.257 55.6021 106.257 56.3389V60.2368C106.169 60.2663 105.573 60.3916 105.278 60.3916C105.146 60.3916 105.094 60.3547 105.013 60.2368C104.623 59.6695 104.351 59.1979 103.681 58.1147C103.144 57.2379 102.908 56.7368 102.547 56.0074C102.599 56.8253 102.592 57.2747 102.592 57.7316V60.06C102.592 60.2368 102.54 60.2663 102.378 60.2958C102.216 60.3179 101.87 60.34 101.561 60.3326C101.576 59.9789 101.591 59.4632 101.591 58.7189V55.0126L101.458 54.8284V54.8211Z" fill="white"/>
<path d="M108.613 53.6937C108.613 54.0621 108.392 54.2905 108.046 54.2905C107.781 54.2905 107.509 54.1137 107.509 53.7453C107.509 53.4063 107.7 53.1558 108.098 53.1558C108.4 53.1558 108.62 53.4063 108.62 53.6937M107.428 55.9042C107.428 55.3074 107.42 54.9463 107.398 54.7768C107.575 54.7474 108.296 54.7032 108.495 54.7032C108.665 54.7032 108.694 54.7916 108.694 55.1895V59.1611C108.694 59.78 108.709 60.0747 108.723 60.2516C108.569 60.2958 107.87 60.3253 107.641 60.3253C107.487 60.3253 107.428 60.2958 107.428 60.1484V55.8968V55.9042Z" fill="white"/>
<path d="M110.52 54.7105C110.659 54.7105 110.726 54.8284 110.865 55.219C111.211 56.2063 111.771 57.6579 112.124 58.8737C112.559 57.5547 113.089 56.0811 113.574 54.6958C113.92 54.6958 114.362 54.7695 114.495 54.8211C114.627 54.8653 114.627 54.9905 114.546 55.2263C113.935 56.8621 113.273 58.4242 112.632 59.9642C112.559 60.1411 112.5 60.2368 112.404 60.2811C112.286 60.3474 111.874 60.3842 111.454 60.3842C110.821 58.6379 110.07 56.6263 109.32 54.9095C109.747 54.7842 110.225 54.7032 110.52 54.7032" fill="white"/>
<path d="M115.157 55.9779C115.157 55.5505 115.157 55.2484 115.128 54.8579C115.415 54.7916 115.864 54.7326 116.283 54.7326H118.396C118.33 55.219 118.212 55.3884 118.101 55.5137C117.962 55.5653 117.601 55.5653 117.218 55.5653H116.43V56.9947H118.3C118.219 57.6874 118.02 57.8274 117.697 57.8274H116.43V59.4411C116.644 59.4779 116.85 59.4926 117.137 59.4926C117.483 59.4926 118.168 59.4926 118.631 59.4558L118.646 59.4705C118.55 59.9126 118.374 60.1263 118.138 60.2811C118.006 60.3032 117.579 60.3253 116.872 60.3253C116.07 60.3253 115.503 60.2811 115.297 60.2368L115.157 60.06V55.9705V55.9779Z" fill="white"/>
<path d="M120.523 57.3337C120.729 57.3632 121.2 57.3337 121.318 57.2674C121.443 57.2084 121.789 56.9874 121.789 56.4053C121.789 55.7347 121.384 55.4105 120.854 55.4105C120.751 55.4105 120.626 55.4179 120.523 55.44V57.3263V57.3337ZM120.523 60.0674C120.523 60.2442 120.457 60.2811 120.31 60.2958C120.052 60.3179 119.471 60.3326 119.264 60.3326C119.279 59.9789 119.294 59.4558 119.294 58.7116V55.7421C119.294 55.3074 119.294 55.0937 119.279 54.8432C119.493 54.7989 120.486 54.6958 120.891 54.6958C122.408 54.6958 123.078 55.2116 123.078 56.3095C123.078 57.1274 122.386 57.5253 122.04 57.6947C122.231 57.8716 122.496 58.3432 122.783 58.8442C123.195 59.5884 123.446 59.9495 123.674 60.2147V60.2516C123.6 60.3032 123.225 60.3474 122.864 60.3474C122.503 60.3474 122.26 60.2737 122.025 59.9716C121.826 59.7211 121.627 59.3158 121.252 58.5642C121.016 58.0853 120.847 58.0484 120.641 58.0484H120.516V60.06L120.523 60.0674Z" fill="white"/>
<path d="M127.288 55.0421C127.281 55.2926 127.126 55.7053 126.773 55.6832C126.574 55.5874 126.177 55.4695 125.904 55.4695C125.44 55.4695 125.168 55.6832 125.168 55.9926C125.168 56.3537 125.448 56.56 126.294 57.0389C127.03 57.4589 127.516 57.7905 127.516 58.66C127.516 59.8021 126.515 60.4063 125.463 60.4063C124.829 60.4063 124.373 60.2295 124.13 60.06C123.954 59.9421 123.887 59.8463 123.887 59.7211C123.887 59.5295 124.057 59.1242 124.138 59.08C124.461 59.2863 124.999 59.5 125.433 59.5C125.912 59.5 126.265 59.3158 126.265 58.9032C126.265 58.5863 126.118 58.38 125.212 57.8863C124.174 57.3337 123.983 56.7589 123.983 56.2063C123.983 55.58 124.425 54.5926 125.941 54.5926C126.456 54.5926 127.06 54.8063 127.288 55.0347" fill="white"/>
<path d="M129.474 53.6937C129.474 54.0621 129.254 54.2905 128.908 54.2905C128.643 54.2905 128.37 54.1137 128.37 53.7453C128.37 53.4063 128.562 53.1558 128.959 53.1558C129.261 53.1558 129.482 53.4063 129.482 53.6937M128.282 55.9042C128.282 55.3074 128.274 54.9463 128.252 54.7768C128.429 54.7474 129.15 54.7032 129.349 54.7032C129.519 54.7032 129.548 54.7916 129.548 55.1895V59.1611C129.548 59.78 129.563 60.0747 129.577 60.2516C129.423 60.2958 128.724 60.3253 128.495 60.3253C128.341 60.3253 128.282 60.2958 128.282 60.1484V55.8968V55.9042Z" fill="white"/>
<path d="M131.845 55.5653H130.306C130.144 55.5653 130.078 55.4916 130.144 55.2632C130.24 54.9537 130.358 54.7916 130.453 54.6884C130.615 54.7253 130.858 54.7326 131.712 54.7326H134.944C134.899 55.3 134.634 55.5211 134.428 55.5653H133.111V59.1758C133.111 59.7874 133.125 60.0821 133.14 60.2589C132.868 60.3032 132.485 60.3326 132.058 60.3326C131.918 60.3326 131.845 60.3032 131.845 60.1705V55.5653Z" fill="white"/>
<path d="M135.452 55.9779C135.452 55.5505 135.452 55.2484 135.422 54.8579C135.709 54.7916 136.158 54.7326 136.578 54.7326H138.69C138.624 55.219 138.506 55.3884 138.396 55.5137C138.256 55.5653 137.903 55.5653 137.513 55.5653H136.725V56.9947H138.595C138.514 57.6874 138.315 57.8274 137.991 57.8274H136.725V59.4411C136.938 59.4779 137.145 59.4926 137.432 59.4926C137.778 59.4926 138.462 59.4926 138.926 59.4558L138.941 59.4705C138.845 59.9126 138.668 60.1263 138.433 60.2811C138.3 60.3032 137.873 60.3253 137.167 60.3253C136.364 60.3253 135.798 60.2811 135.591 60.2368L135.452 60.06V55.9705V55.9779Z" fill="white"/>
<path d="M142.71 55.0421C142.702 55.2926 142.548 55.7053 142.194 55.6832C141.996 55.5874 141.598 55.4695 141.326 55.4695C140.869 55.4695 140.59 55.6832 140.59 55.9926C140.59 56.3537 140.869 56.56 141.716 57.0389C142.452 57.4589 142.938 57.7905 142.938 58.66C142.938 59.8021 141.937 60.4063 140.884 60.4063C140.251 60.4063 139.795 60.2295 139.552 60.06C139.375 59.9421 139.309 59.8463 139.309 59.7211C139.309 59.5295 139.478 59.1242 139.559 59.08C139.883 59.2863 140.42 59.5 140.855 59.5C141.333 59.5 141.686 59.3158 141.686 58.9032C141.686 58.5863 141.539 58.38 140.634 57.8863C139.596 57.3337 139.404 56.7589 139.404 56.2063C139.404 55.58 139.846 54.5926 141.363 54.5926C141.878 54.5926 142.481 54.8063 142.71 55.0347" fill="white"/>
<path d="M144.888 53.6937C144.888 54.0621 144.668 54.2905 144.322 54.2905C144.057 54.2905 143.784 54.1137 143.784 53.7453C143.784 53.4063 143.976 53.1558 144.373 53.1558C144.675 53.1558 144.896 53.4063 144.896 53.6937M143.703 55.9042C143.703 55.3074 143.696 54.9463 143.674 54.7768C143.851 54.7474 144.572 54.7032 144.771 54.7032C144.94 54.7032 144.969 54.7916 144.969 55.1895V59.1611C144.969 59.78 144.984 60.0747 144.999 60.2516C144.844 60.2958 144.145 60.3253 143.917 60.3253C143.762 60.3253 143.703 60.2958 143.703 60.1484V55.8968V55.9042Z" fill="white"/>
<path d="M72.8013 5.70315C72.8013 4.95894 72.7792 4.46526 72.7424 3.68421C73.1031 3.58842 74.4354 3.43368 75.3924 3.39684H80.155C79.9857 4.42842 79.6618 4.82631 79.3747 5.07684C79.1097 5.18737 78.7122 5.18737 77.8289 5.18737H75.5249V8.65789H79.7207C79.4925 10.3158 79.0361 10.4484 78.2558 10.4484H75.5322C75.5322 12.2389 75.5543 13.8674 75.5911 15.2747C75.2672 15.3705 74.1631 15.4295 73.265 15.4295C72.9411 15.4295 72.8086 15.3705 72.8086 15.0463V5.70315H72.8013Z" fill="white"/>
<path d="M86.7873 10.4705C85.985 8.20105 85.4697 6.86737 85.2783 6.27053C84.8808 7.39789 84.3655 8.88632 83.7914 10.4705H86.78H86.7873ZM83.2025 12.2463C82.8565 13.16 82.3412 14.5747 82.1131 15.1495C82.0174 15.3411 81.8628 15.4368 81.5389 15.4368C81.0457 15.4368 80.074 15.3189 79.5956 15.1863V15.1126C80.5525 12.7842 83.4233 5.78421 84.1889 3.93474L84.0564 3.58842C84.8955 3.41895 86.1911 3.33789 86.4046 3.33789C86.5591 3.33789 86.7285 3.43368 86.8462 3.69895C87.7443 5.81368 89.0766 9.40211 89.6876 11.0232C90.49 13.0642 90.9464 14.2505 91.3291 15.1274V15.2011C90.8875 15.3337 89.3637 15.4295 88.8705 15.4295C88.5466 15.4295 88.3921 15.3337 88.2007 14.7958C87.8547 13.8453 87.6118 13.1379 87.2879 12.2389H83.2099L83.2025 12.2463Z" fill="white"/>
<path d="M94.119 5.18737H90.8065C90.4605 5.18737 90.3059 5.03263 90.4605 4.53895C90.674 3.86842 90.9169 3.52947 91.1304 3.30105C91.469 3.37474 92.0064 3.39684 93.8319 3.39684H100.788C100.692 4.62 100.118 5.09895 99.684 5.18737H96.8426V12.9537C96.8426 14.2653 96.8794 14.8989 96.9015 15.2821C96.3126 15.3779 95.4882 15.4368 94.5754 15.4368C94.2736 15.4368 94.119 15.3779 94.119 15.0979V5.18737Z" fill="white"/>
<path d="M104.638 1.16421C104.638 1.96737 104.16 2.43895 103.416 2.43895C102.842 2.43895 102.253 2.05579 102.253 1.25263C102.253 0.530525 102.673 -0.00737 103.512 -0.00737C104.16 -0.00737 104.638 0.530525 104.638 1.15684M102.084 5.91684C102.084 4.6421 102.062 3.85368 102.025 3.49263C102.408 3.43368 103.946 3.33789 104.388 3.33789C104.748 3.33789 104.807 3.52947 104.807 4.38421V12.9316C104.807 14.2653 104.844 14.8989 104.866 15.2821C104.542 15.3779 103.033 15.4368 102.54 15.4368C102.216 15.4368 102.084 15.3779 102.084 15.0537V5.91684Z" fill="white"/>
<path d="M114.811 8.20105V3.94947C114.811 3.51474 114.98 3.43368 115.326 3.41895C115.819 3.3821 116.909 3.36 117.594 3.34526C117.557 4.06737 117.535 5.19474 117.535 6.77895V12.9389C117.535 14.2726 117.571 14.9063 117.594 15.2821C117.174 15.3779 115.761 15.4368 115.267 15.4368C114.958 15.4368 114.811 15.3779 114.811 15.0389V9.92526C114.428 9.96211 113.817 9.98421 112.905 9.98421H110.255V14.8326C110.255 15.2526 110.1 15.3263 109.607 15.3632C109.077 15.4221 107.87 15.4589 107.472 15.4368C107.509 14.6705 107.531 13.5505 107.531 11.9442V5.91684C107.531 4.63474 107.509 3.85368 107.472 3.49263C108.061 3.39684 109.393 3.33789 109.835 3.33789C110.196 3.33789 110.255 3.52947 110.255 4.38421V8.20105H114.811Z" fill="white"/>
<path d="M79.1833 20.7053C79.1612 21.2432 78.8374 22.1347 78.0792 22.0758C77.6596 21.8621 76.7983 21.6189 76.2094 21.6189C75.2157 21.6189 74.6268 22.0758 74.6268 22.7463C74.6268 23.5274 75.2378 23.9695 77.0486 25.001C78.6312 25.9 79.6765 26.6221 79.6765 28.4937C79.6765 30.9547 77.5271 32.2516 75.2525 32.2516C73.8981 32.2516 72.9117 31.8684 72.3964 31.5074C72.0136 31.2568 71.8811 31.0505 71.8811 30.7853C71.8811 30.3653 72.2418 29.5105 72.4185 29.4147C73.1251 29.8568 74.2661 30.3137 75.201 30.3137C76.2315 30.3137 76.9897 29.9158 76.9897 29.0389C76.9897 28.3537 76.6658 27.9116 74.7225 26.8432C72.4921 25.6642 72.0725 24.4189 72.0725 23.24C72.0725 21.8842 73.0221 19.7695 76.2831 19.7695C77.3872 19.7695 78.6828 20.2263 79.1833 20.72" fill="white"/>
<path d="M84.0785 26.3937C84.0785 29.7316 85.4329 30.3063 86.6916 30.3063C88.1418 30.3063 89.268 29.621 89.268 26.261V20.5358C89.268 20.1526 89.4226 20.0789 89.7097 20.0568C90.2839 19.9979 91.2702 19.9832 91.653 19.9832C91.6162 20.7495 91.5941 21.8695 91.5941 23.4537V26.1653C91.5941 31.4116 88.8116 32.2516 86.3898 32.2516C82.9964 32.2516 81.3622 30.4389 81.3622 26.5116V22.5989C81.3622 21.3242 81.3401 20.5358 81.3033 20.1379C81.6861 20.0789 83.2246 19.9832 83.6662 19.9832C84.0269 19.9832 84.0858 20.1747 84.0858 21.1105V26.3937H84.0785Z" fill="white"/>
<path d="M94.1411 22.5989C94.1411 21.3242 94.119 20.5358 94.0822 20.1379C94.5386 20.0789 95.6059 19.9832 96.4451 19.9832C96.8058 19.9832 96.8647 20.1747 96.8647 21.1253V30.1516C97.2254 30.2253 97.7627 30.2842 98.4105 30.2842C99.154 30.2842 100.295 30.2842 101.311 30.1884L101.348 30.2253C101.193 31.0874 100.773 31.6547 100.28 31.9789C100.015 32.0379 99.3233 32.0747 97.8069 32.0747C96.1875 32.0747 94.9066 31.9789 94.4502 31.8832L94.1484 31.5V22.5916L94.1411 22.5989Z" fill="white"/>
<path d="M103.953 21.8326H100.641C100.295 21.8326 100.14 21.6779 100.295 21.1842C100.508 20.5137 100.751 20.1747 100.965 19.9463C101.303 20.02 101.841 20.0421 103.666 20.0421H110.623C110.527 21.2653 109.953 21.7442 109.518 21.8326H106.677V29.5989C106.677 30.9105 106.714 31.5442 106.736 31.9274C106.147 32.0232 105.323 32.0821 104.41 32.0821C104.108 32.0821 103.953 32.0232 103.953 31.7432V21.84V21.8326Z" fill="white"/>
<path d="M116.644 27.1158C115.842 24.8463 115.326 23.5126 115.135 22.9158C114.737 24.0432 114.222 25.5316 113.648 27.1158H116.637H116.644ZM113.059 28.8916C112.713 29.8053 112.198 31.22 111.97 31.7947C111.874 31.9863 111.719 32.0821 111.395 32.0821C110.902 32.0821 109.931 31.9642 109.452 31.8316V31.7579C110.409 29.4295 113.28 22.4295 114.045 20.58L113.913 20.2337C114.752 20.0642 116.048 19.9832 116.254 19.9832C116.408 19.9832 116.578 20.0789 116.695 20.3442C117.594 22.4589 118.926 26.0474 119.537 27.6684C120.339 29.7095 120.796 30.8958 121.178 31.7726V31.8463C120.737 31.9789 119.213 32.0747 118.72 32.0747C118.396 32.0747 118.241 31.9789 118.05 31.441C117.704 30.4905 117.461 29.7832 117.137 28.8842H113.059V28.8916Z" fill="white"/>
<path d="M122.334 20.2337V20.1379C122.754 20.0789 124.697 19.9832 125.08 19.9832C125.293 19.9832 125.44 20.1158 125.632 20.3221C126.221 21.2358 127.634 23.4684 128.738 25.34C129.541 26.6958 130.166 27.7053 130.623 28.7C130.49 27.4621 130.512 26.8874 130.512 25.9147V20.5947C130.512 20.16 130.645 20.0789 130.947 20.0642C131.558 20.0053 132.264 19.9905 132.721 19.9905C132.684 20.8084 132.662 21.9137 132.662 23.4979V31.8684C132.47 31.9274 131.189 32.1926 130.549 32.1926C130.262 32.1926 130.152 32.1189 129.975 31.8684C129.136 30.6453 128.547 29.6358 127.119 27.3074C125.956 25.421 125.463 24.3526 124.682 22.7905C124.8 24.5442 124.778 25.5168 124.778 26.4895V31.5074C124.778 31.8905 124.668 31.9495 124.322 32.001C123.976 32.0526 123.232 32.0968 122.57 32.0747C122.606 31.3084 122.629 30.2032 122.629 28.6042V20.6316L122.341 20.2337H122.334Z" fill="white"/>
<path d="M82.2529 36.8716C82.5547 36.7021 84.0784 36.5842 84.5937 36.5842C84.8072 36.5842 84.9176 36.7021 84.9912 37.1958L85.904 44.1811C86.169 46.1853 86.3825 47.5926 86.5297 48.5137C86.1837 48.6095 84.7557 48.6905 84.3361 48.6905C84.0711 48.6905 83.8061 48.5947 83.7619 48.1747C83.6662 47.2389 83.5485 46.1337 83.3644 43.9968L82.9669 39.6495C82.5105 41.2116 81.561 44.1295 80.3537 47.7547C80.2212 48.1747 80.0519 48.3295 79.5735 48.4253C79.176 48.499 78.6754 48.58 78.219 48.58C77.8215 47.2463 76.1947 42.1547 75.4365 39.6937C75.2451 41.8526 74.8108 46.0232 74.5237 48.3737C74.4869 48.58 74.3912 48.6979 74.1631 48.6979C73.5521 48.6979 72.5068 48.6979 72.1976 48.5211C72.5215 46.4579 73.2061 41.58 73.9349 37.1884L73.8981 36.8863C74.4354 36.7758 75.1936 36.5989 76.261 36.5989C76.5701 36.5842 76.6805 36.7168 76.9676 37.5347L79.463 44.5937C80.2654 42.3979 81.4432 39.0968 82.2455 37.1516V36.8863L82.2529 36.8716Z" fill="white"/>
<path d="M88.4583 39.3179C88.4583 38.4042 88.4583 37.7558 88.3994 36.9158C89.0104 36.7832 89.9821 36.6505 90.8727 36.6505H95.4072C95.2747 37.6968 95.0097 38.0579 94.7815 38.3305C94.4797 38.4484 93.7141 38.4484 92.875 38.4484H91.1819V41.5211H95.2011C95.0318 43.0095 94.5901 43.3116 93.9055 43.3116H91.1819V46.7821C91.6383 46.8558 92.08 46.8926 92.7057 46.8926C93.4491 46.8926 94.914 46.8926 95.9298 46.8189L95.9666 46.8558C95.7531 47.8063 95.3777 48.2632 94.8772 48.5947C94.5901 48.6537 93.6773 48.6905 92.1536 48.6905C90.4164 48.6905 89.2165 48.5947 88.7601 48.4989L88.4583 48.1158V39.3179Z" fill="white"/>
<path d="M104.793 41.4474V37.1958C104.793 36.7611 104.962 36.68 105.308 36.6653C105.801 36.6284 106.89 36.6063 107.575 36.5916C107.538 37.3137 107.516 38.4411 107.516 40.0253V46.1853C107.516 47.5189 107.553 48.1526 107.575 48.5284C107.155 48.6242 105.742 48.6832 105.249 48.6832C104.947 48.6832 104.793 48.6242 104.793 48.2853V43.1716C104.41 43.2084 103.799 43.2305 102.886 43.2305H100.236V48.0789C100.236 48.4989 100.081 48.5726 99.5883 48.6095C99.0583 48.6684 97.8511 48.7053 97.4536 48.6832C97.4904 47.9168 97.5125 46.7968 97.5125 45.1905V39.1632C97.5125 37.8811 97.4904 37.1 97.4536 36.7389C98.0425 36.6432 99.3748 36.5842 99.8165 36.5842C100.177 36.5842 100.236 36.7758 100.236 37.6305V41.4474H104.793Z" fill="white"/>
<path d="M119.559 36.8716C119.861 36.7021 121.384 36.5842 121.9 36.5842C122.113 36.5842 122.224 36.7021 122.297 37.1958L123.21 44.1811C123.475 46.1853 123.689 47.5926 123.836 48.5137C123.49 48.6095 122.062 48.6905 121.642 48.6905C121.377 48.6905 121.105 48.5947 121.068 48.1747C120.972 47.2389 120.854 46.1337 120.67 43.9968L120.273 39.6495C119.817 41.2116 118.867 44.1295 117.66 47.7547C117.527 48.1747 117.358 48.3295 116.88 48.4253C116.482 48.499 115.981 48.58 115.525 48.58C115.128 47.2463 113.501 42.1547 112.743 39.6937C112.551 41.8526 112.117 46.0232 111.83 48.3737C111.793 48.58 111.697 48.6979 111.469 48.6979C110.858 48.6979 109.813 48.6979 109.504 48.5211C109.828 46.4579 110.512 41.58 111.241 37.1884L111.204 36.8863C111.741 36.7758 112.5 36.5989 113.567 36.5989C113.876 36.5842 113.987 36.7168 114.274 37.5347L116.769 44.5937C117.571 42.3979 118.749 39.0968 119.552 37.1516V36.8863L119.559 36.8716Z" fill="white"/>
<path d="M125.764 39.3179C125.764 38.4042 125.764 37.7558 125.705 36.9158C126.316 36.7832 127.288 36.6505 128.179 36.6505H132.713C132.581 37.6968 132.316 38.0579 132.088 38.3305C131.786 38.4484 131.02 38.4484 130.181 38.4484H128.488V41.5211H132.507C132.33 43.0095 131.896 43.3116 131.212 43.3116H128.488V46.7821C128.944 46.8558 129.386 46.8926 130.012 46.8926C130.755 46.8926 132.22 46.8926 133.236 46.8189L133.273 46.8558C133.059 47.8063 132.684 48.2632 132.183 48.5947C131.896 48.6537 130.983 48.6905 129.46 48.6905C127.722 48.6905 126.523 48.5947 126.066 48.4989L125.764 48.1158V39.3179Z" fill="white"/>
<path d="M137.483 38.4337H134.171C133.825 38.4337 133.67 38.2789 133.825 37.7853C134.038 37.1147 134.281 36.7758 134.495 36.5474C134.833 36.621 135.371 36.6432 137.196 36.6432H144.152C144.057 37.8663 143.483 38.3453 143.048 38.4337H140.207V46.2C140.207 47.5189 140.244 48.1453 140.266 48.5284C139.677 48.6242 138.852 48.6832 137.94 48.6832C137.638 48.6832 137.483 48.6242 137.483 48.3442V38.441V38.4337Z" fill="white"/>
<path d="M102.577 64.3779C102.577 64.9968 102.606 68.9242 102.606 69.6758C102.606 69.86 102.533 69.8968 102.349 69.9116C101.988 69.941 101.436 69.9484 101.267 69.9484C101.274 69.4621 101.289 67.421 101.289 65.5421C101.075 65.6084 100.376 65.7705 100.081 65.8L100.052 65.7632L100.288 65.0779C101.061 64.8642 102.113 64.4958 102.496 64.3337L102.577 64.3779Z" fill="white"/>
<path d="M107.597 64.2305C106.832 65.1442 105.882 66.3305 105.116 67.6863C105.418 67.7305 105.838 67.76 106.272 67.7526L106.309 66.6695C106.508 66.5295 107.214 66.3526 107.509 66.3232L107.546 66.36V67.7526C107.678 67.7526 108.009 67.7305 108.208 67.7158L108.223 67.7453C108.157 68.0547 108.061 68.3053 107.958 68.46C107.789 68.5411 107.663 68.5558 107.538 68.5705V69.6611C107.538 69.8084 107.42 69.8453 107.236 69.8747C106.92 69.9337 106.368 69.9411 106.191 69.9411C106.228 69.4474 106.257 68.7474 106.257 68.5853C105.617 68.5853 104.623 68.519 104.263 68.46C104.189 68.4158 103.931 68.04 103.931 67.8558C104.38 66.9863 105.779 65.0411 106.25 64.5474C106.611 64.3411 107.236 64.1937 107.568 64.1495L107.597 64.2232V64.2305Z" fill="white"/>
<path d="M112.566 64.4884C112.588 65.6821 110.932 69.0421 110.424 69.6242C110.277 69.7863 110.078 69.8895 109.776 69.9484C109.467 69.9926 109.202 70.0074 109.018 69.9926L108.996 69.9558C109.835 68.9095 110.807 67.0526 111.3 65.4389C111.042 65.4389 110.277 65.4611 109.268 65.4611C108.606 65.4611 108.547 65.3358 108.584 65.1295C108.62 64.9158 108.871 64.54 109.084 64.3632C109.195 64.4368 109.474 64.4516 109.886 64.4516H112.522L112.559 64.4958L112.566 64.4884Z" fill="white"/>
<path d="M116.04 64.3779C116.04 64.9968 116.07 68.9242 116.07 69.6758C116.07 69.86 115.996 69.8968 115.812 69.9116C115.451 69.941 114.899 69.9484 114.73 69.9484C114.737 69.4621 114.752 67.421 114.752 65.5421C114.539 65.6084 113.839 65.7705 113.545 65.8L113.515 65.7632L113.751 65.0779C114.524 64.8642 115.577 64.4958 115.959 64.3337L116.04 64.3779Z" fill="white"/>
<path d="M92.6836 67.8853H72.0504C71.9179 67.8853 71.8075 67.7747 71.8075 67.6421C71.8075 67.5095 71.9179 67.3989 72.0504 67.3989H92.6836C92.8161 67.3989 92.9265 67.5095 92.9265 67.6421C92.9265 67.7747 92.8161 67.8853 92.6836 67.8853ZM145.632 67.8853H124.999C124.866 67.8853 124.756 67.7747 124.756 67.6421C124.756 67.5095 124.866 67.3989 124.999 67.3989H145.632C145.764 67.3989 145.875 67.5095 145.875 67.6421C145.875 67.7747 145.764 67.8853 145.632 67.8853Z" fill="white"/>
<path d="M145.632 68.0105H124.999C124.8 68.0105 124.631 67.8484 124.631 67.6421C124.631 67.4358 124.793 67.2737 124.999 67.2737H145.632C145.831 67.2737 146 67.4358 146 67.6421C146 67.8484 145.838 68.0105 145.632 68.0105ZM125.006 67.5168C124.94 67.5168 124.881 67.5758 124.881 67.6421C124.881 67.7084 124.94 67.7674 125.006 67.7674H145.639C145.706 67.7674 145.764 67.7084 145.764 67.6421C145.764 67.5758 145.706 67.5168 145.639 67.5168H125.006ZM92.6836 68.0105H72.0504C71.8517 68.0105 71.6824 67.8484 71.6824 67.6421C71.6824 67.4358 71.8443 67.2737 72.0504 67.2737H92.6836C92.8823 67.2737 93.0516 67.4358 93.0516 67.6421C93.0516 67.8484 92.8897 68.0105 92.6836 68.0105ZM72.0504 67.5168C71.9842 67.5168 71.9253 67.5758 71.9253 67.6421C71.9253 67.7084 71.9842 67.7674 72.0504 67.7674H92.6836C92.7498 67.7674 92.8087 67.7084 92.8087 67.6421C92.8087 67.5758 92.7498 67.5168 92.6836 67.5168H72.0504Z" fill="white"/>
</g>
<defs>
<clipPath id="clip0_2_2">
<rect width="146" height="70" fill="white"/>
</clipPath>
</defs>
</svg>
