<svg preserveAspectRatio="none" width="100%" height="100%" overflow="visible" style="display: block;" viewBox="0 0 25 27.2675" fill="none" xmlns="http://www.w3.org/2000/svg">
<g id="Group">
<g id="Vector">
</g>
<path id="Vector_2" d="M12.5 0C19.4038 0 25 5.59625 25 12.5C25 19.4038 19.4038 25 12.5 25C5.59625 25 0 19.4038 0 12.5C0 5.59625 5.59625 0 12.5 0ZM12.5 5C12.1685 5 11.8505 5.1317 11.6161 5.36612C11.3817 5.60054 11.25 5.91848 11.25 6.25V12.5C11.2501 12.8315 11.3818 13.1494 11.6163 13.3838L15.3663 17.1338C15.602 17.3615 15.9178 17.4874 16.2455 17.4846C16.5732 17.4817 16.8868 17.3503 17.1185 17.1185C17.3503 16.8868 17.4817 16.5733 17.4846 16.2455C17.4874 15.9178 17.3614 15.602 17.1338 15.3663L13.75 11.9825V6.25C13.75 5.91848 13.6183 5.60054 13.3839 5.36612C13.1495 5.1317 12.8315 5 12.5 5Z" fill="var(--fill-0, #006580)"/>
</g>
</svg>
