<svg preserveAspectRatio="none" width="100%" height="100%" overflow="visible" style="display: block;" viewBox="0 0 25 24.75" fill="none" xmlns="http://www.w3.org/2000/svg">
<g id="Group">
<path id="Vector" d="M0 8.5C0 6.1425 -7.45058e-08 4.965 0.7325 4.2325C1.465 3.5 2.6425 3.5 5 3.5H20C22.3575 3.5 23.535 3.5 24.2675 4.2325C25 4.965 25 6.1425 25 8.5C25 9.08875 25 9.38375 24.8175 9.5675C24.6338 9.75 24.3375 9.75 23.75 9.75H1.25C0.66125 9.75 0.36625 9.75 0.1825 9.5675C-1.11759e-07 9.38375 0 9.0875 0 8.5ZM0 19.75C0 22.1075 -7.45058e-08 23.285 0.7325 24.0175C1.465 24.75 2.6425 24.75 5 24.75H20C22.3575 24.75 23.535 24.75 24.2675 24.0175C25 23.285 25 22.1075 25 19.75V13.5C25 12.9113 25 12.6162 24.8175 12.4325C24.6338 12.25 24.3375 12.25 23.75 12.25H1.25C0.66125 12.25 0.36625 12.25 0.1825 12.4325C-1.11759e-07 12.6162 0 12.9125 0 13.5V19.75Z" fill="var(--fill-0, #006580)"/>
<path id="Vector_2" d="M6.25 1V4.75M18.75 1V4.75" stroke="var(--stroke-0, #006580)" stroke-width="2" stroke-linecap="round"/>
</g>
</svg>
