<svg preserveAspectRatio="none" width="100%" height="100%" overflow="visible" style="display: block;" viewBox="0 0 171 28" fill="none" xmlns="http://www.w3.org/2000/svg">
<g id="Frame 2">
<path id="Vector" d="M14 0C6.26147 0 0 6.27752 0 14C0 21.7225 6.26147 28 14 28C21.7385 28 28 21.7385 28 14C28 6.26147 21.7385 0 14 0ZM20.1651 18.4633C20.1651 19.3463 19.3945 20.1651 18.6078 20.1651H15.7339C14.8509 20.1651 14.0482 19.6995 13.7592 19.0252L11.945 14.305L11.5275 13.1972V20.1812H7.85092V7.86697H9.48853H13.8394L16.4083 14.5619L16.5046 14.8028V7.86697H20.1812V18.4954L20.1651 18.4633Z" fill="var(--fill-0, #006580)"/>
<path id="Vector_2" d="M44.3136 7.89908L53.262 20.0367H54.6399L45.7844 7.89908H44.3136ZM49.5 0C42.0378 0 36 6.26147 36 14C36 21.7385 42.0378 28 49.5 28C56.9622 28 63 21.7385 63 14C63 6.26147 56.9622 0 49.5 0ZM52.5808 21.5619L48.6795 16.2798L44.2208 21.5619H41.7437L47.5338 14.7064L41.4341 6.43807H46.543L50.0728 11.2706L54.1445 6.43807H56.6216L51.2185 12.844L57.5814 21.5619H52.5963H52.5808Z" fill="var(--fill-0, #006580)"/>
<path id="Vector_3" d="M85 0C77.2615 0 71 6.26147 71 14C71 21.7385 77.2615 28 85 28C92.7385 28 99 21.7385 99 14C99 6.26147 92.7385 0 85 0ZM88.0986 14H85.9633V21.1766H83.0894V14H81.6445V11.1261H83.0734V9.82569C83.0734 8.65367 83.6353 6.82339 86.1078 6.82339H88.3234V9.29587H86.7018C86.445 9.29587 86.0596 9.42431 86.0596 9.98624V11.1422H88.3395L88.0826 14.0161L88.0986 14Z" fill="var(--fill-0, #006580)"/>
<g id="Group">
<path id="Vector_4" d="M121 11.5596C119.652 11.5596 118.56 12.6513 118.56 13.9999C118.56 15.3486 119.652 16.4403 121 16.4403C122.349 16.4403 123.441 15.3486 123.441 13.9999C123.441 12.6513 122.349 11.5596 121 11.5596Z" fill="var(--fill-0, #006580)"/>
<path id="Vector_5" d="M126.716 9.68121C126.587 9.34405 126.427 9.08717 126.17 8.83029C125.913 8.57341 125.672 8.41286 125.335 8.28442C125.078 8.18809 124.693 8.05965 123.97 8.02754C123.2 7.99543 122.959 7.97937 121 7.97937C119.041 7.97937 118.817 7.97937 118.03 8.02754C117.307 8.05965 116.922 8.17203 116.665 8.28442C116.328 8.41286 116.071 8.57341 115.83 8.83029C115.59 9.08717 115.413 9.32799 115.285 9.68121C115.188 9.93809 115.06 10.3234 115.028 11.0459C114.996 11.8165 114.979 12.0574 114.979 14C114.979 15.9427 114.979 16.1835 115.028 16.9702C115.06 17.6927 115.172 18.078 115.285 18.3349C115.413 18.672 115.574 18.9289 115.83 19.1858C116.087 19.4427 116.328 19.6032 116.665 19.7317C116.922 19.828 117.307 19.9564 118.03 19.9885C118.801 20.0207 119.041 20.0367 120.984 20.0367C122.927 20.0367 123.168 20.0367 123.954 19.9885C124.677 19.9564 125.062 19.844 125.319 19.7317C125.656 19.6032 125.913 19.4427 126.154 19.1858C126.395 18.9289 126.571 18.6881 126.7 18.3349C126.796 18.078 126.924 17.6927 126.957 16.9702C126.989 16.1996 127.005 15.9587 127.005 14C127.005 12.0413 127.005 11.8165 126.957 11.0459C126.924 10.3234 126.812 9.93809 126.7 9.68121H126.716ZM121 17.7729C118.929 17.7729 117.243 16.0872 117.243 14.0161C117.243 11.945 118.929 10.2592 121 10.2592C123.071 10.2592 124.757 11.945 124.757 14.0161C124.757 16.0872 123.071 17.7729 121 17.7729ZM124.918 10.9656C124.436 10.9656 124.035 10.5642 124.035 10.0826C124.035 9.60093 124.436 9.19955 124.918 9.19955C125.399 9.19955 125.801 9.60093 125.801 10.0826C125.801 10.5642 125.399 10.9656 124.918 10.9656Z" fill="var(--fill-0, #006580)"/>
<path id="Vector_6" d="M121 0C113.261 0 107 6.26147 107 14C107 21.7385 113.261 28 121 28C128.739 28 135 21.7385 135 14C135 6.26147 128.739 0 121 0ZM128.289 17.0183C128.257 17.805 128.128 18.3349 127.952 18.8005C127.759 19.2821 127.518 19.6835 127.101 20.1009C126.683 20.5183 126.282 20.7592 125.8 20.9518C125.335 21.1284 124.805 21.2569 124.018 21.289C123.232 21.3211 122.991 21.3372 121 21.3372C119.009 21.3372 118.752 21.3372 117.982 21.289C117.195 21.2569 116.665 21.1284 116.2 20.9518C115.718 20.7592 115.317 20.5183 114.899 20.1009C114.482 19.6835 114.241 19.2821 114.048 18.8005C113.872 18.3349 113.743 17.805 113.711 17.0183C113.679 16.2317 113.663 15.9908 113.663 14C113.663 12.0092 113.663 11.7523 113.711 10.9817C113.743 10.195 113.872 9.66514 114.048 9.19954C114.241 8.71789 114.482 8.31651 114.899 7.89908C115.317 7.48165 115.718 7.24083 116.2 7.04816C116.665 6.87156 117.195 6.74312 117.982 6.71101C118.768 6.6789 119.009 6.66284 121 6.66284C122.991 6.66284 123.248 6.66284 124.018 6.71101C124.805 6.74312 125.335 6.87156 125.8 7.04816C126.282 7.24083 126.683 7.48165 127.101 7.89908C127.518 8.31651 127.759 8.71789 127.952 9.19954C128.128 9.66514 128.257 10.195 128.289 10.9817C128.321 11.7683 128.337 12.0092 128.337 14C128.337 15.9908 128.337 16.2477 128.289 17.0183Z" fill="var(--fill-0, #006580)"/>
</g>
<g id="Group_2">
<path id="Vector_7" d="M155.298 16.5527L159.697 13.9839L155.298 11.4633V16.5527Z" fill="var(--fill-0, #006580)"/>
<path id="Vector_8" d="M157 0C149.261 0 143 6.26147 143 14C143 21.7385 149.261 28 157 28C164.739 28 171 21.7385 171 14C171 6.26147 164.722 0 157 0ZM165.124 18.0619C164.915 18.8005 164.337 19.3784 163.631 19.555C162.298 19.9243 157 19.9243 157 19.9243C157 19.9243 151.702 19.9243 150.385 19.555C149.647 19.3784 149.101 18.8005 148.892 18.0619C148.539 16.7454 148.539 13.9839 148.539 13.9839C148.539 13.9839 148.539 11.2385 148.892 9.90596C149.101 9.19954 149.647 8.62156 150.385 8.41284C151.702 8.05963 157 8.05963 157 8.05963C157 8.05963 162.298 8.05963 163.631 8.41284C164.337 8.62156 164.915 9.19954 165.124 9.90596C165.477 11.2385 165.477 13.9839 165.477 13.9839C165.477 13.9839 165.477 16.7454 165.124 18.0619Z" fill="var(--fill-0, #006580)"/>
</g>
</g>
</svg>
