<svg width="28" height="28" viewBox="0 0 28 28" fill="none" xmlns="http://www.w3.org/2000/svg">
<path d="M14.0002 11.5596C12.6516 11.5596 11.5598 12.6513 11.5598 13.9999C11.5598 15.3486 12.6516 16.4403 14.0002 16.4403C15.3488 16.4403 16.4405 15.3486 16.4405 13.9999C16.4405 12.6513 15.3488 11.5596 14.0002 11.5596Z" fill="#006580"/>
<path d="M19.7157 9.68121C19.5873 9.34405 19.4267 9.08717 19.1698 8.83029C18.9129 8.57341 18.6721 8.41286 18.335 8.28442C18.0781 8.18809 17.6928 8.05965 16.9703 8.02754C16.1996 7.99543 15.9588 7.97937 14.0001 7.97937C12.0414 7.97937 11.8166 7.97937 11.0299 8.02754C10.3074 8.05965 9.92212 8.17203 9.66524 8.28442C9.32808 8.41286 9.07121 8.57341 8.83038 8.83029C8.58956 9.08717 8.41295 9.32799 8.28451 9.68121C8.18818 9.93809 8.05974 10.3234 8.02763 11.0459C7.99552 11.8165 7.97946 12.0574 7.97946 14C7.97946 15.9427 7.97947 16.1835 8.02763 16.9702C8.05974 17.6927 8.17213 18.078 8.28451 18.3349C8.41295 18.672 8.5735 18.9289 8.83038 19.1858C9.08726 19.4427 9.32808 19.6032 9.66524 19.7317C9.92212 19.828 10.3074 19.9564 11.0299 19.9885C11.8006 20.0207 12.0414 20.0367 13.9841 20.0367C15.9267 20.0367 16.1675 20.0367 16.9542 19.9885C17.6767 19.9564 18.062 19.844 18.3189 19.7317C18.6561 19.6032 18.913 19.4427 19.1538 19.1858C19.3946 18.9289 19.5712 18.6881 19.6996 18.3349C19.796 18.078 19.9244 17.6927 19.9565 16.9702C19.9886 16.1996 20.0047 15.9587 20.0047 14C20.0047 12.0413 20.0047 11.8165 19.9565 11.0459C19.9244 10.3234 19.812 9.93809 19.6996 9.68121H19.7157ZM14.0001 17.7729C11.929 17.7729 10.2432 16.0872 10.2432 14.0161C10.2432 11.945 11.929 10.2592 14.0001 10.2592C16.0712 10.2592 17.757 11.945 17.757 14.0161C17.757 16.0872 16.0712 17.7729 14.0001 17.7729ZM17.9175 10.9656C17.4359 10.9656 17.0345 10.5642 17.0345 10.0826C17.0345 9.60093 17.4359 9.19955 17.9175 9.19955C18.3992 9.19955 18.8006 9.60093 18.8006 10.0826C18.8006 10.5642 18.3992 10.9656 17.9175 10.9656Z" fill="#006580"/>
<path d="M14 0C6.26147 0 0 6.26147 0 14C0 21.7385 6.26147 28 14 28C21.7385 28 28 21.7385 28 14C28 6.26147 21.7385 0 14 0ZM21.289 17.0183C21.2569 17.805 21.1284 18.3349 20.9518 18.8005C20.7592 19.2821 20.5183 19.6835 20.1009 20.1009C19.6835 20.5183 19.2821 20.7592 18.8005 20.9518C18.3349 21.1284 17.805 21.2569 17.0183 21.289C16.2316 21.3211 15.9908 21.3372 14 21.3372C12.0092 21.3372 11.7523 21.3372 10.9816 21.289C10.1949 21.2569 9.66513 21.1284 9.19953 20.9518C8.71788 20.7592 8.31651 20.5183 7.89908 20.1009C7.48165 19.6835 7.24082 19.2821 7.04816 18.8005C6.87156 18.3349 6.74311 17.805 6.711 17.0183C6.67889 16.2317 6.66284 15.9908 6.66284 14C6.66284 12.0092 6.66284 11.7523 6.711 10.9817C6.74311 10.195 6.87156 9.66514 7.04816 9.19954C7.24082 8.71789 7.48165 8.31651 7.89908 7.89908C8.31651 7.48165 8.71788 7.24083 9.19953 7.04816C9.66513 6.87156 10.1949 6.74312 10.9816 6.71101C11.7683 6.6789 12.0092 6.66284 14 6.66284C15.9908 6.66284 16.2477 6.66284 17.0183 6.71101C17.805 6.74312 18.3349 6.87156 18.8005 7.04816C19.2821 7.24083 19.6835 7.48165 20.1009 7.89908C20.5183 8.31651 20.7592 8.71789 20.9518 9.19954C21.1284 9.66514 21.2569 10.195 21.289 10.9817C21.3211 11.7683 21.3372 12.0092 21.3372 14C21.3372 15.9908 21.3371 16.2477 21.289 17.0183Z" fill="#006580"/>
</svg>
