<svg width="28" height="28" viewBox="0 0 28 28" fill="none" xmlns="http://www.w3.org/2000/svg">
<path d="M12.2983 16.5527L16.6974 13.9839L12.2983 11.4633V16.5527Z" fill="#006580"/>
<path d="M14 0C6.26147 0 0 6.26147 0 14C0 21.7385 6.26147 28 14 28C21.7385 28 28 21.7385 28 14C28 6.26147 21.7225 0 14 0ZM22.1239 18.0619C21.9151 18.8005 21.3372 19.3784 20.6307 19.555C19.2982 19.9243 14 19.9243 14 19.9243C14 19.9243 8.70183 19.9243 7.38532 19.555C6.64679 19.3784 6.10091 18.8005 5.8922 18.0619C5.53899 16.7454 5.53899 13.9839 5.53899 13.9839C5.53899 13.9839 5.53899 11.2385 5.8922 9.90596C6.10091 9.19954 6.64679 8.62156 7.38532 8.41284C8.70183 8.05963 14 8.05963 14 8.05963C14 8.05963 19.2982 8.05963 20.6307 8.41284C21.3372 8.62156 21.9151 9.19954 22.1239 9.90596C22.4771 11.2385 22.4771 13.9839 22.4771 13.9839C22.4771 13.9839 22.4771 16.7454 22.1239 18.0619Z" fill="#006580"/>
</svg>
