<svg width="28" height="28" viewBox="0 0 28 28" fill="none" xmlns="http://www.w3.org/2000/svg">
<path d="M14 0C6.26147 0 0 6.27752 0 14C0 21.7225 6.26147 28 14 28C21.7385 28 28 21.7385 28 14C28 6.26147 21.7385 0 14 0ZM20.1651 18.4633C20.1651 19.3463 19.3945 20.1651 18.6078 20.1651H15.7339C14.8509 20.1651 14.0482 19.6995 13.7592 19.0252L11.945 14.305L11.5275 13.1972V20.1812H7.85092V7.86697H9.48853H13.8394L16.4083 14.5619L16.5046 14.8028V7.86697H20.1812V18.4954L20.1651 18.4633Z" fill="#006580"/>
</svg>
